<svg xmlns="http://www.w3.org/2000/svg" width="24" height="24" viewBox="0 0 24 24">
  <defs>
    <style>
      .cls-1, .cls-2 {
        fill: #f9d000;
      }

      .cls-1 {
        opacity: 0;
      }

      .cls-3, .cls-4 {
        stroke: none;
      }

      .cls-4 {
        fill: #707070;
      }
    </style>
  </defs>
  <g id="组_1" data-name="组 1" transform="translate(-55 -176)">
    <g id="路径_2" data-name="路径 2" class="cls-1" transform="translate(55 176)">
      <path class="cls-3" d="M 23.5 23.5 L 0.5 23.5 L 0.5 0.5 L 23.5 0.5 L 23.5 23.5 Z"/>
      <path class="cls-4" d="M 1 1 L 1 23 L 23 23 L 23 1 L 1 1 M 0 0 L 24 0 L 24 24 L 0 24 L 0 0 Z"/>
    </g>
    <path id="形状_1151" data-name="形状 1151" class="cls-2" d="M1065.617,193.548h-4.229a3.15,3.15,0,0,1-6.144-.005,1.341,1.341,0,0,1-1.246-1.313V182.89a1.933,1.933,0,0,1,1.967-1.893h7.932a1.934,1.934,0,0,1,1.968,1.894v.356h2.4a1.408,1.408,0,0,1,.982.4l3.365,3.317a1.284,1.284,0,0,1,.388.918v5.666h-1.241a3.149,3.149,0,0,1-6.143,0Zm1.094-1.1V193a1.978,1.978,0,0,0,3.954,0v-.549h1.186v-4.567a.217.217,0,0,0-.063-.152l-3.365-3.317a.229.229,0,0,0-.16-.065h-3.546V182.89a.809.809,0,0,0-.822-.793h-7.929a.808.808,0,0,0-.822.791v9.343a.221.221,0,0,0,.225.217h.969V193a1.978,1.978,0,0,0,3.953,0v-.549Zm.447.55a1.532,1.532,0,0,1,3.061,0l-.573,0h.573a1.532,1.532,0,0,1-3.061,0Zm1.148,0a.382.382,0,0,0,.764,0v0a.382.382,0,0,0-.764,0Zm-11.521,0a1.532,1.532,0,0,1,3.062,0l-.574,0h.574a1.532,1.532,0,0,1-3.062,0Zm1.261-.266a.363.363,0,0,0-.113.261.383.383,0,0,0,.766,0v0a.378.378,0,0,0-.384-.371A.389.389,0,0,0,1058.046,192.732Zm7.43-2.633V184.78h2.105a1.407,1.407,0,0,1,.981.4l2.843,2.794V190.1Zm1.147-1.1h3.636v-.58l-2.518-2.474a.23.23,0,0,0-.159-.064h-.958Z" transform="translate(-996)"/>
  </g>
</svg>
