<svg xmlns="http://www.w3.org/2000/svg" width="24" height="24" viewBox="0 0 24 24">
  <defs>
    <style>
      .cls-1, .cls-2 {
        fill: #fff;
      }

      .cls-1 {
        opacity: 0;
      }

      .cls-3, .cls-4 {
        stroke: none;
      }

      .cls-4 {
        fill: #707070;
      }
    </style>
  </defs>
  <g id="组_6" data-name="组 6" transform="translate(-55 -476)">
    <g id="路径_7" data-name="路径 7" class="cls-1" transform="translate(55 476)">
      <path class="cls-3" d="M 23.5 23.5 L 0.5 23.5 L 0.5 0.5 L 23.5 0.5 L 23.5 23.5 Z"/>
      <path class="cls-4" d="M 1 1 L 1 23 L 23 23 L 23 1 L 1 1 M 0 0 L 24 0 L 24 24 L 0 24 L 0 0 Z"/>
    </g>
    <path id="形状_1156" data-name="形状 1156" class="cls-2" d="M1061.694,496.807l-2.555-2.325h-2.417a2.725,2.725,0,0,1-2.723-2.722V481.722a2.726,2.726,0,0,1,2.723-2.723h12.556a2.725,2.725,0,0,1,2.722,2.723v10.053a2.725,2.725,0,0,1-2.722,2.723h-6.059v1.551a.951.951,0,0,1-1.525.759Zm-6.011-15.085v10.039a1.04,1.04,0,0,0,1.039,1.039h2.517a1.486,1.486,0,0,1,.993.376l1.29,1.186v-.085A1.469,1.469,0,0,1,1063,492.8h6.262a1.041,1.041,0,0,0,1.04-1.039V481.722a1.041,1.041,0,0,0-1.04-1.04h-12.541A1.04,1.04,0,0,0,1055.683,481.722Zm2.926,7.756a.849.849,0,0,1,0-1.7h8.781a.849.849,0,0,1,0,1.7Zm0-3.761a.849.849,0,0,1,0-1.7h8.781a.849.849,0,0,1,0,1.7Z" transform="translate(-996)"/>
  </g>
</svg>
