<svg xmlns="http://www.w3.org/2000/svg" width="24" height="24" viewBox="0 0 24 24">
  <defs>
    <style>
      .cls-1, .cls-2 {
        fill: #f9d000;
      }

      .cls-1 {
        opacity: 0;
      }

      .cls-3, .cls-4 {
        stroke: none;
      }

      .cls-4 {
        fill: #707070;
      }
    </style>
  </defs>
  <g id="组_3" data-name="组 3" transform="translate(-55 -295)">
    <g id="路径_4" data-name="路径 4" class="cls-1" transform="translate(55 295)">
      <path class="cls-3" d="M 23.5 23.5 L 0.5 23.5 L 0.5 0.5 L 23.5 0.5 L 23.5 23.5 Z"/>
      <path class="cls-4" d="M 1 1 L 1 23 L 23 23 L 23 1 L 1 1 M 0 0 L 24 0 L 24 24 L 0 24 L 0 0 Z"/>
    </g>
    <path id="形状_1153" data-name="形状 1153" class="cls-2" d="M1064.147,315.324a.947.947,0,0,1-.328-1.061c0-.019.005-.042.011-.071l.007-.043a1.057,1.057,0,0,0,.035-.22.818.818,0,0,0-.819-.833h-.062a.811.811,0,0,1-.733-.673,3.348,3.348,0,0,1-.139-1.011,4.156,4.156,0,0,1,.1-.806l.01-.047c.008-.038.015-.082.016-.1l0-.032a.841.841,0,0,1,.734-.7h.063a.783.783,0,0,0,.584-.236.826.826,0,0,0,.235-.588,1.326,1.326,0,0,0-.05-.327.942.942,0,0,1,.318-1.072l.019-.015,1.18-.62a.494.494,0,0,1,.343-.082.98.98,0,0,1,.684.3.482.482,0,0,0,.093.07,1.57,1.57,0,0,0,.6.329,1.357,1.357,0,0,0,.62-.389.832.832,0,0,1,.695-.312h.361l1.172.658a.965.965,0,0,1,.328,1.061c0,.02-.005.042-.01.07l-.008.044a1.051,1.051,0,0,0-.034.22.816.816,0,0,0,.818.832h.063a.841.841,0,0,1,.735.716v.034a4.317,4.317,0,0,0,.13.716l.076-.057v.168a4.3,4.3,0,0,1-.134,1.027.827.827,0,0,1-.728.684h-.062a.822.822,0,0,0-.828.832,1.207,1.207,0,0,0,.05.317.962.962,0,0,1-.317,1.082l-.017.015-1.127.629a.759.759,0,0,1-.4.082.947.947,0,0,1-.694-.312l-.019-.021a1.243,1.243,0,0,0-.664-.422c-.11,0-.318.077-.682.443a.829.829,0,0,1-.693.312.4.4,0,0,0-.24.045l-.088.036Zm4.084-.889.022.019.223.226.563-.306a1.806,1.806,0,0,1-.082-.49,2.031,2.031,0,0,1,1.643-2.031.246.246,0,0,0,0-.036l0-.053a.68.68,0,0,0-.021-.313l-.018-.056a2.508,2.508,0,0,0-.036-.41l0-.024c0-.023-.006-.042-.01-.062a2.082,2.082,0,0,1-1.64-2.039,1.753,1.753,0,0,1,.089-.491l-.57-.317a.439.439,0,0,1-.042.032,1.307,1.307,0,0,0-.175.142l-.022.016a1.966,1.966,0,0,1-1.1.4,1.941,1.941,0,0,1-1.092-.4,1.23,1.23,0,0,1-.254-.192l-.563.306a1.839,1.839,0,0,1,.081.49,2.023,2.023,0,0,1-1.64,2.039c0,.038-.008.077-.014.114s-.006.051-.01.076-.007.076-.012.115a1.717,1.717,0,0,0-.014.182,2.6,2.6,0,0,0,.034.391l0,.022c0,.022.007.043.01.064a2.063,2.063,0,0,1,1.642,2.03,1.739,1.739,0,0,1-.091.492l.489.289c.028-.027.058-.052.086-.075l.053-.043a.971.971,0,0,0,.1-.085l.041-.028a2.229,2.229,0,0,1,1.164-.4A1.983,1.983,0,0,1,1068.232,314.435Zm-11.946,1.386a2.29,2.29,0,0,1-2.283-2.316,7.7,7.7,0,0,1,4.913-7.2l-.026-.014a4.676,4.676,0,0,1-.383-6.983,4.328,4.328,0,0,1,3.117-1.31,4.659,4.659,0,0,1,2.921,8.3l-.263.192a4.727,4.727,0,0,1-2.465.789h-.695a6.293,6.293,0,0,0-5.656,6.235.794.794,0,0,0,.235.588.777.777,0,0,0,.581.236H1062a.685.685,0,0,1,.673.739.728.728,0,0,1-.673.742Zm2.3-13.2a3.152,3.152,0,1,0,3.152-3.17A3.164,3.164,0,0,0,1058.587,302.621ZM1066.7,313.3a1.937,1.937,0,0,1-1.514-1.524,1.961,1.961,0,0,1,.525-1.774,1.843,1.843,0,0,1,1.685-.5,1.9,1.9,0,0,1,1.514,1.589,1.873,1.873,0,0,1-2.21,2.209Zm-.292-1.934a.652.652,0,0,0,.641.643.636.636,0,0,0,.457-.2.656.656,0,0,0,.183-.445.663.663,0,0,0-.642-.644A.652.652,0,0,0,1066.408,311.368Z" transform="translate(-996)"/>
  </g>
</svg>
