<svg xmlns="http://www.w3.org/2000/svg" width="24" height="24" viewBox="0 0 24 24">
  <defs>
    <style>
      .cls-1, .cls-2 {
        fill: #fff;
      }

      .cls-1 {
        opacity: 0;
      }

      .cls-3, .cls-4 {
        stroke: none;
      }

      .cls-4 {
        fill: #707070;
      }
    </style>
  </defs>
  <g id="组_2" data-name="组 2" transform="translate(-55 -236)">
    <g id="路径_3" data-name="路径 3" class="cls-1" transform="translate(55 236)">
      <path class="cls-3" d="M 23.5 23.5 L 0.5 23.5 L 0.5 0.5 L 23.5 0.5 L 23.5 23.5 Z"/>
      <path class="cls-4" d="M 1 1 L 1 23 L 23 23 L 23 1 L 1 1 M 0 0 L 24 0 L 24 24 L 0 24 L 0 0 Z"/>
    </g>
    <path id="形状_1152" data-name="形状 1152" class="cls-2" d="M1072.6,256.34l-.049-.029h0a5.75,5.75,0,0,0-2.428-.733l2.3-6.225a.805.805,0,0,0-.357-.98l-2.385-1.366.206-3.995v-.036a1.522,1.522,0,0,0-1.522-1.51h-.587v-.947a1.529,1.529,0,0,0-1.531-1.52h-6.426a1.529,1.529,0,0,0-1.532,1.52v.947h-.571a1.535,1.535,0,0,0-1.537,1.526l.2,3.991-2.427,1.391a.8.8,0,0,0-.357.98l2.543,6.881a4.022,4.022,0,0,1-1.814-.831.821.821,0,0,0-1.147.116.8.8,0,0,0,.116,1.139,5.654,5.654,0,0,0,5.11,1.042l.552-.161c1.5-.444,2.5-.738,3.922-.1a5.961,5.961,0,0,0,2.469.565,10.56,10.56,0,0,0,3.034-.6l.188-.056a4.1,4.1,0,0,1,3.2.388.819.819,0,0,0,1.116-.288A.806.806,0,0,0,1072.6,256.34Zm-1.946-6.9-2.329,6.3-.125.033h0l-.281.084c-1.63.485-2.625.781-4.045.241V245.55Zm-2.982-6.349h.577l-.155,3.012-4.675-2.679a.822.822,0,0,0-.816,0l-4.631,2.654-.155-2.988h.577a1.524,1.524,0,0,0,1.526-1.514v-.953h6.225v.953A1.524,1.524,0,0,0,1067.668,243.087Zm-9.147,13h0l-.03-.1c-.175.051-.355.1-.538.157l-.1.026-2.489-6.736,6.87-3.937v10.043a7.621,7.621,0,0,0-3.744.446l.029.1Z" transform="translate(-996)"/>
  </g>
</svg>
