<svg xmlns="http://www.w3.org/2000/svg" width="24" height="24" viewBox="0 0 24 24">
  <defs>
    <style>
      .cls-1, .cls-2 {
        fill: #fff;
      }

      .cls-1 {
        opacity: 0;
      }

      .cls-3, .cls-4 {
        stroke: none;
      }

      .cls-4 {
        fill: #707070;
      }
    </style>
  </defs>
  <g id="组_5" data-name="组 5" transform="translate(-55 -415)">
    <g id="路径_6" data-name="路径 6" class="cls-1" transform="translate(55 415)">
      <path class="cls-3" d="M 23.5 23.5 L 0.5 23.5 L 0.5 0.5 L 23.5 0.5 L 23.5 23.5 Z"/>
      <path class="cls-4" d="M 1 1 L 1 23 L 23 23 L 23 1 L 1 1 M 0 0 L 24 0 L 24 24 L 0 24 L 0 0 Z"/>
    </g>
    <path id="形状_1155" data-name="形状 1155" class="cls-2" d="M1060.236,435.493l-5.726-5.713a1.724,1.724,0,0,1,0-2.449l8.331-8.37a3.553,3.553,0,0,1,2.234-.934l5.167-.027h.005a1.756,1.756,0,0,1,1.245.513l.033.035a1.736,1.736,0,0,1,.475,1.211l-.041,5.2a3.062,3.062,0,0,1-.659,1.949l-.422.421a.655.655,0,0,1-.05.049.77.77,0,1,1-1.035-1.14l.418-.418a1.955,1.955,0,0,0,.208-.875l.042-5.2a.21.21,0,0,0-.062-.15.266.266,0,0,0-.149-.06l-5.167.029a2.031,2.031,0,0,0-1.15.48l-8.332,8.371a.195.195,0,0,0,0,.28l5.725,5.712a.2.2,0,0,0,.277,0l.47-.449c.013-.013.03-.029.047-.044a.771.771,0,0,1,1.277.629.763.763,0,0,1-.261.528l-.449.431a1.743,1.743,0,0,1-2.449-.008Zm6.305-.7-.007-.007a1.451,1.451,0,0,1-1.021.437,1.316,1.316,0,0,1-.554-.114l-.09-.045-.865-.483a1.375,1.375,0,0,1-.585-1.561,1.29,1.29,0,0,1-1.129-1.089,4.806,4.806,0,0,1-.1-.829v-.043a5.338,5.338,0,0,1,.1-.819,1.4,1.4,0,0,1,.4-.753,1.209,1.209,0,0,1,.736-.343,1.368,1.368,0,0,1,.518-1.513.911.911,0,0,1,.105-.063l.974-.517a1.4,1.4,0,0,1,.547-.113h0a1.437,1.437,0,0,1,1.011.423l0,0,0,0a1.413,1.413,0,0,1,1.555-.305l.055.028-.021.12.056-.1.874.482a1.377,1.377,0,0,1,.587,1.571,1.281,1.281,0,0,1,1.131,1.087,4.621,4.621,0,0,1,.09.827v.033a5.386,5.386,0,0,1-.09.82,1.4,1.4,0,0,1-.4.756,1.2,1.2,0,0,1-.737.341,1.362,1.362,0,0,1-.515,1.514.706.706,0,0,1-.112.067l-.878.485a1.372,1.372,0,0,1-.607.144A1.445,1.445,0,0,1,1066.541,434.788Zm1.038-1.129.585-.324a1.577,1.577,0,0,1-.068-.359,1.443,1.443,0,0,1,1.231-1.473,3.241,3.241,0,0,0,.037-.428,3.007,3.007,0,0,0-.036-.411,1.429,1.429,0,0,1-1.226-1.426v-.043a1.656,1.656,0,0,1,.068-.374l-.57-.316a1.329,1.329,0,0,1-2.054,0l-.609.326a1.62,1.62,0,0,1,.068.34v.065a1.447,1.447,0,0,1-1.232,1.425,3.928,3.928,0,0,0-.044.435,3.166,3.166,0,0,0,.041.413,1.433,1.433,0,0,1,1.235,1.41v.038a1.418,1.418,0,0,1-.069.392l.552.31a1.7,1.7,0,0,1,1.04-.507A1.669,1.669,0,0,1,1067.579,433.66ZM1065,431.1a1.542,1.542,0,1,1,1.543,1.539A1.542,1.542,0,0,1,1065,431.1Zm1.067-.005a.465.465,0,0,0,.14.331.469.469,0,0,0,.332.137h0a.471.471,0,1,0-.474-.468Zm-1.1-6.024-.2-.2h.023a2.438,2.438,0,1,1,.175.2Zm1.091-2.4-.033.033a.928.928,0,0,0,.691,1.551h0a.928.928,0,1,0,0-1.857h0A.928.928,0,0,0,1066.062,422.667Z" transform="translate(-996)"/>
  </g>
</svg>
