<svg xmlns="http://www.w3.org/2000/svg" width="24" height="24" viewBox="0 0 24 24">
  <defs>
    <style>
      .cls-1, .cls-2 {
        fill: #f9d000;
      }

      .cls-1 {
        opacity: 0;
      }

      .cls-3, .cls-4 {
        stroke: none;
      }

      .cls-4 {
        fill: #707070;
      }
    </style>
  </defs>
  <g id="组_4" data-name="组 4" transform="translate(-55 -356)">
    <g id="路径_5" data-name="路径 5" class="cls-1" transform="translate(55 356)">
      <path class="cls-3" d="M 23.5 23.5 L 0.5 23.5 L 0.5 0.5 L 23.5 0.5 L 23.5 23.5 Z"/>
      <path class="cls-4" d="M 1 1 L 1 23 L 23 23 L 23 1 L 1 1 M 0 0 L 24 0 L 24 24 L 0 24 L 0 0 Z"/>
    </g>
    <path id="形状_1154" data-name="形状 1154" class="cls-2" d="M1065.3,375.88a4.294,4.294,0,0,1-1.041-2.092.759.759,0,1,1,1.488-.3,2.128,2.128,0,0,0,.67,1.27,2.327,2.327,0,0,0,3.272,0,2.354,2.354,0,0,0-1.264-3.959.819.819,0,0,1-.595-.9.772.772,0,0,1,.893-.6,3,3,0,0,1,1.932,1.121,3.889,3.889,0,0,1,0,5.453,3.758,3.758,0,0,1-5.354,0Zm-10.188-.075a3.889,3.889,0,0,1,0-5.453,4.246,4.246,0,0,1,2.082-1.046.762.762,0,0,1,.3,1.494,2.112,2.112,0,0,0-1.265.672,2.353,2.353,0,0,0,0,3.287,2.326,2.326,0,0,0,3.272,0,2.35,2.35,0,0,0,.67-1.27.772.772,0,0,1,.893-.6.563.563,0,0,1,.446.822,3.323,3.323,0,0,1-1.041,2.092,3.758,3.758,0,0,1-5.354,0Zm12.494-2.166-3.347-3.362a3.49,3.49,0,0,1-1.264.3,2.434,2.434,0,0,1-1.264-.3l-3.347,3.362a.717.717,0,0,1-1.041,0,.725.725,0,0,1,0-1.046l3.347-3.361a3.518,3.518,0,0,1-.3-1.27,2.463,2.463,0,0,1,.3-1.27l-3.347-3.361a.725.725,0,0,1,0-1.046.716.716,0,0,1,1.041,0l3.347,3.362a3.49,3.49,0,0,1,1.264-.3,2.435,2.435,0,0,1,1.264.3l3.347-3.362a.717.717,0,0,1,1.041,0,.725.725,0,0,1,0,1.046l-3.347,3.361a3.539,3.539,0,0,1,.3,1.27,2.464,2.464,0,0,1-.3,1.27l3.347,3.361a.725.725,0,0,1,0,1.046.717.717,0,0,1-1.041,0Zm-5.727-5.677a1.116,1.116,0,1,0,1.115-1.12A1.146,1.146,0,0,0,1061.88,367.961Zm6.768-1.345a.725.725,0,0,1-.744-.6.775.775,0,0,1,.6-.9,2.105,2.105,0,0,0,1.263-.672,2.352,2.352,0,0,0,0-3.287,2.326,2.326,0,0,0-3.272,0,2.355,2.355,0,0,0-.669,1.27.772.772,0,0,1-.893.6.638.638,0,0,1-.52-.822,3.318,3.318,0,0,1,1.04-2.092,3.849,3.849,0,0,1,5.43,0,3.891,3.891,0,0,1,0,5.453,4.257,4.257,0,0,1-2.083,1.046Zm-11.38,0a4.244,4.244,0,0,1-2.081-1.046,3.889,3.889,0,0,1,0-5.453,3.847,3.847,0,0,1,5.428,0,4.287,4.287,0,0,1,1.041,2.092.759.759,0,1,1-1.488.3,2.12,2.12,0,0,0-.67-1.27,2.326,2.326,0,0,0-3.272,0,2.353,2.353,0,0,0,0,3.287,2.753,2.753,0,0,0,1.338.6.821.821,0,0,1,.6.9.725.725,0,0,1-.744.6Z" transform="translate(-996)"/>
  </g>
</svg>
