<svg xmlns="http://www.w3.org/2000/svg" width="18.962" height="17.996" viewBox="0 0 18.962 17.996">
  <defs>
    <style>
      .cls-1 {
        fill: #f9d000;
      }
    </style>
  </defs>
  <path id="形状_1152" data-name="形状 1152" class="cls-1" d="M1054,136.025v-5.384a.951.951,0,1,1,1.9,0v1.717h.418a.989.989,0,0,0,.977-1,.951.951,0,1,1,1.9,0,2.92,2.92,0,0,1-2.877,2.949h-.418v1.719a.951.951,0,1,1-1.9,0Zm14.1-2a.991.991,0,0,1-.007-1.377l3.245-3.359a.933.933,0,0,1,1.344-.007.992.992,0,0,1,.007,1.378l-3.243,3.359a.937.937,0,0,1-1.345.006Zm-3.336-.764-10.286-6.09a.974.974,0,0,1-.443-.59.984.984,0,0,1,.094-.739l3.576-6.351a.937.937,0,0,1,1.3-.357l11.933,7.064a.97.97,0,0,1,.467.715,1,1,0,0,1-.268.816l-5.221,5.377a.938.938,0,0,1-1.15.157Zm-8.511-7.29,8.828,5.228,3.834-3.947-10.037-5.943-1.225,2.175,5.373,3.124a.985.985,0,0,1,.357,1.327.942.942,0,0,1-.826.493.927.927,0,0,1-.469-.128l-5.385-3.13Z" transform="translate(-1054.002 -119.003)"/>
</svg>
