{
	"asset":{
		"version":"2.0",
		"generator":"Created using the official Cinema 4D glTF Exporter 1.000x284978"
	},
	"accessors":[{
		"bufferView":0,
		"type":"SCALAR",
		"componentType":5123,
		"count":144,
		"byteOffset":0,
		"min":[0],
		"max":[133]
	},
	{
		"bufferView":1,
		"type":"VEC3",
		"componentType":5126,
		"count":134,
		"byteOffset":0,
		"min":[14.221820831298829,
		0.16373908519744874,
		-66.17979431152344],
		"max":[15.940570831298829,
		1.570815920829773,
		78.69984436035156]
	},
	{
		"bufferView":1,
		"type":"VEC3",
		"componentType":5126,
		"count":134,
		"byteOffset":12,
		"min":[-0.9999688267707825,
		-0.9994375705718994,
		-1.0],
		"max":[0.9999688267707825,
		0.9995625615119934,
		1.0]
	},
	{
		"bufferView":1,
		"type":"VEC2",
		"componentType":5126,
		"count":134,
		"byteOffset":24,
		"min":[-9.899999618530274,
		-177.89999389648438],
		"max":[9.899999618530274,
		0.8999999761581421]
	},
	{
		"bufferView":2,
		"type":"SCALAR",
		"componentType":5123,
		"count":7890,
		"byteOffset":0,
		"min":[0],
		"max":[7450]
	},
	{
		"bufferView":3,
		"type":"VEC3",
		"componentType":5126,
		"count":7451,
		"byteOffset":0,
		"min":[0.16424989700317384,
		-5.781244277954102,
		-125.01422119140625],
		"max":[16.115894317626954,
		6.2309889793396,
		124.9760513305664]
	},
	{
		"bufferView":3,
		"type":"VEC3",
		"componentType":5126,
		"count":7451,
		"byteOffset":12,
		"min":[-0.9999688267707825,
		-0.9998750686645508,
		-1.0],
		"max":[0.9998750686645508,
		0.9998750686645508,
		1.0]
	},
	{
		"bufferView":3,
		"type":"VEC2",
		"componentType":5126,
		"count":7451,
		"byteOffset":24,
		"min":[0.2710016369819641,
		-0.5429069995880127],
		"max":[0.7290123701095581,
		-0.1556626558303833]
	},
	{
		"bufferView":4,
		"type":"SCALAR",
		"componentType":5123,
		"count":36,
		"byteOffset":0,
		"min":[0],
		"max":[23]
	},
	{
		"bufferView":5,
		"type":"VEC3",
		"componentType":5126,
		"count":24,
		"byteOffset":0,
		"min":[0.1689300537109375,
		-1.0647125244140626,
		-123.2933349609375],
		"max":[68.85865020751953,
		2.2307257652282717,
		123.25924682617188]
	},
	{
		"bufferView":5,
		"type":"VEC3",
		"componentType":5126,
		"count":24,
		"byteOffset":12,
		"min":[-0.9993438124656677,
		-0.9992188215255737,
		-1.0],
		"max":[0.9995625615119934,
		0.9992188215255737,
		1.0]
	},
	{
		"bufferView":5,
		"type":"VEC2",
		"componentType":5126,
		"count":24,
		"byteOffset":24,
		"min":[0.0,
		0.0],
		"max":[1.0,
		1.0]
	}],
	"scenes":[{
		"nodes":[0]
	}],
	"nodes":[{
		"name":"3FDoor",
		"translation":[-42696.765625,
		1228.5230712890626,
		-18368.380859375],
		"rotation":[-0.7071067690849304,
		1.1780402431327275e-8,
		1.1780402431327275e-8,
		0.7071067690849304],
		"scale":[1.0,
		1.0,
		1.0280790328979493],
		"children":[1]
	},
	{
		"name":"Box131",
		"translation":[42627.76171875,
		-18371.548828125,
		-1070.4383544921876],
		"rotation":[-1.8869081650743132e-16,
		-5.3710764503895339e-18,
		0.015707319602370263,
		-0.9998766183853149],
		"scale":[1.0,
		1.0,
		1.0],
		"children":[2,
		3,
		4]
	},
	{
		"name":"Box131-Material #6334",
		"translation":[0.0,
		0.0,
		0.0],
		"rotation":[4.440892098500626e-16,
		0.0,
		0.0,
		-1.0],
		"scale":[1.0,
		1.0,
		1.0],
		"mesh":0
	},
	{
		"name":"Box131-05 - Default",
		"translation":[0.0,
		0.0,
		0.0],
		"rotation":[4.440892098500626e-16,
		0.0,
		0.0,
		-1.0],
		"scale":[1.0,
		1.0,
		1.0],
		"mesh":1
	},
	{
		"name":"Box131-Material #13461",
		"translation":[0.0,
		0.0,
		0.0],
		"rotation":[4.440892098500626e-16,
		0.0,
		0.0,
		-1.0],
		"scale":[1.0,
		1.0,
		1.0],
		"mesh":2
	}],
	"meshes":[{
		"name":"Box131-Material #6334",
		"primitives":[{
			"attributes":{
				"POSITION":1,
				"NORMAL":2,
				"TEXCOORD_0":3
			},
			"indices":0,
			"material":0
		}]
	},
	{
		"name":"Box131-05 - Default",
		"primitives":[{
			"attributes":{
				"POSITION":5,
				"NORMAL":6,
				"TEXCOORD_0":7
			},
			"indices":4,
			"material":1
		}]
	},
	{
		"name":"Box131-Material #13461",
		"primitives":[{
			"attributes":{
				"POSITION":9,
				"NORMAL":10,
				"TEXCOORD_0":11
			},
			"indices":8,
			"material":2
		}]
	}],
	"bufferViews":[{
		"buffer":0,
		"byteOffset":0,
		"byteLength":288,
		"target":34963
	},
	{
		"buffer":0,
		"byteOffset":288,
		"byteLength":4288,
		"target":34962,
		"byteStride":32
	},
	{
		"buffer":1,
		"byteOffset":0,
		"byteLength":15780,
		"target":34963
	},
	{
		"buffer":1,
		"byteOffset":15780,
		"byteLength":238432,
		"target":34962,
		"byteStride":32
	},
	{
		"buffer":2,
		"byteOffset":0,
		"byteLength":72,
		"target":34963
	},
	{
		"buffer":2,
		"byteOffset":72,
		"byteLength":768,
		"target":34962,
		"byteStride":32
	}],
	"samplers":[{
		"magFilter":9729,
		"minFilter":9729,
		"wrapS":10497,
		"wrapT":10497
	}],
	"buffers":[{
		"uri":"data:application/octet-stream;base64,",
		"byteLength":4576
	},
	{
		"uri":"data:application/octet-stream;base64,",
		"byteLength":254212
	},
	{
		"uri":"data:application/octet-stream;base64,",
		"byteLength":840
	}],
	"images":[{
		"uri":"data:image/jpeg;base64,"
	}],
	"textures":[{
		"sampler":0,
		"source":0
	}],
	"materials":[{
		"pbrMetallicRoughness":{
			"baseColorFactor":[0.8,
			0.8,
			0.8,
			1.0],
			"metallicFactor":0.0,
			"roughnessFactor":0.5
		},
		"name":"Material #6334",
		"emissiveFactor":[0.0,
		0.0,
		0.0],
		"alphaMode":"OPAQUE",
		"doubleSided":false
	},
	{
		"pbrMetallicRoughness":{
			"baseColorTexture":{
				"index":0
			},
			"baseColorFactor":[0.5879999995231628,
			0.5879999995231628,
			0.5879999995231628,
			1.0],
			"metallicFactor":1.0,
			"roughnessFactor":1.0
		},
		"name":"05 - Default",
		"emissiveFactor":[0.0,
		0.0,
		0.0],
		"alphaMode":"OPAQUE",
		"doubleSided":false
	},
	{
		"pbrMetallicRoughness":{
			"baseColorFactor":[0.5879999995231628,
			0.5879999995231628,
			0.5879999995231628,
			0.19999998807907105],
			"metallicFactor":1.0,
			"roughnessFactor":1.0
		},
		"name":"Material #13461",
		"emissiveFactor":[0.0,
		0.0,
		0.0],
		"alphaMode":"BLEND",
		"doubleSided":false
	}]
}