{
	"asset":{
		"version":"2.0",
		"generator":"Created using the official Cinema 4D glTF Exporter 1.000x284978"
	},
	"scenes":[{
		"nodes":[0]
	}],
	"nodes":[{
		"name":"3FDoor",
		"translation":[-42696.765625,
		1228.5230712890626,
		-18368.380859375],
		"rotation":[-0.7071067690849304,
		1.1780402431327275e-8,
		1.1780402431327275e-8,
		0.7071067690849304],
		"scale":[1.0,
		1.0,
		1.0280790328979493],
		"children":[1]
	},
	{
		"name":"Obj3d66-1469207-11-978",
		"translation":[42701.55078125,
		-18367.642578125,
		-1325.1007080078126],
		"rotation":[-4.1359030627651388e-25,
		-4.1932556171574219e-24,
		0.0,
		-1.0],
		"scale":[1.0,
		1.0,
		1.0],
		"children":[2,
		3]
	},
	{
		"name":"Obj3d66-1469207-11-978-Mat3d66-1469207-8-4130",
		"translation":[0.0,
		0.0,
		0.0],
		"rotation":[0.0,
		0.0,
		0.0,
		-1.0],
		"scale":[1.0,
		1.0,
		1.0],
		"mesh":0
	},
	{
		"name":"Obj3d66-1469207-11-978-05 - Default",
		"translation":[0.0,
		0.0,
		0.0],
		"rotation":[0.0,
		0.0,
		0.0,
		-1.0],
		"scale":[1.0,
		1.0,
		1.0],
		"mesh":1
	}],
	"meshes":[{
		"name":"Obj3d66-1469207-11-978-Mat3d66-1469207-8-4130",
		"primitives":[{
			"attributes":{
				"POSITION":1,
				"NORMAL":2,
				"TEXCOORD_0":3
			},
			"indices":0,
			"material":0
		}]
	},
	{
		"name":"Obj3d66-1469207-11-978-05 - Default",
		"primitives":[{
			"attributes":{
				"POSITION":5,
				"NORMAL":6,
				"TEXCOORD_0":7
			},
			"indices":4,
			"material":1
		}]
	}],
	"accessors":[{
		"bufferView":0,
		"type":"SCALAR",
		"componentType":5123,
		"count":2928,
		"byteOffset":0,
		"min":[0],
		"max":[959]
	},
	{
		"bufferView":1,
		"type":"VEC3",
		"componentType":5126,
		"count":960,
		"byteOffset":0,
		"min":[-77.27849578857422,
		-7.907552242279053,
		0.0001087123600882478],
		"max":[67.8475570678711,
		7.62486457824707,
		251.1319122314453]
	},
	{
		"bufferView":1,
		"type":"VEC3",
		"componentType":5126,
		"count":960,
		"byteOffset":12,
		"min":[-0.9986875653266907,
		-0.9999688267707825,
		-1.0],
		"max":[0.9985625743865967,
		0.9999688267707825,
		1.0]
	},
	{
		"bufferView":1,
		"type":"VEC2",
		"componentType":5126,
		"count":960,
		"byteOffset":24,
		"min":[-525.2208251953125,
		-1.0],
		"max":[81.5,
		3.0]
	},
	{
		"bufferView":2,
		"type":"SCALAR",
		"componentType":5123,
		"count":5064,
		"byteOffset":0,
		"min":[0],
		"max":[1169]
	},
	{
		"bufferView":3,
		"type":"VEC3",
		"componentType":5126,
		"count":1170,
		"byteOffset":0,
		"min":[-84.039794921875,
		-12.802083969116211,
		-0.0000032889242902456319],
		"max":[75.55335998535156,
		12.384870529174805,
		260.26385498046877]
	},
	{
		"bufferView":3,
		"type":"VEC3",
		"componentType":5126,
		"count":1170,
		"byteOffset":12,
		"min":[-0.9976875185966492,
		-0.9996563196182251,
		-0.9998750686645508],
		"max":[0.9970312714576721,
		0.9997813105583191,
		0.998343825340271]
	},
	{
		"bufferView":3,
		"type":"VEC2",
		"componentType":5126,
		"count":1170,
		"byteOffset":24,
		"min":[0.14029252529144288,
		-0.5422561764717102],
		"max":[0.8597074747085571,
		-0.15506362915039063]
	}],
	"bufferViews":[{
		"buffer":0,
		"byteOffset":0,
		"byteLength":5856,
		"target":34963
	},
	{
		"buffer":0,
		"byteStride":32,
		"byteOffset":5856,
		"byteLength":30720,
		"target":34962
	},
	{
		"buffer":1,
		"byteOffset":0,
		"byteLength":10128,
		"target":34963
	},
	{
		"buffer":1,
		"byteStride":32,
		"byteOffset":10128,
		"byteLength":37440,
		"target":34962
	}],
	"buffers":[{
		"byteLength":36576,
		"uri":"data:application/octet-stream;base64,"
	},
	{
		"byteLength":47568,
		"uri":"data:application/octet-stream;base64,"
	}],
	"images":[{
		"uri":"data:image/jpeg;base64,"
	}],
	"samplers":[{
		"magFilter":9729,
		"minFilter":9729,
		"wrapS":10497,
		"wrapT":10497
	}],
	"textures":[{
		"sampler":0,
		"source":0
	}],
	"materials":[{
		"pbrMetallicRoughness":{
			"baseColorFactor":[0.8,
			0.8,
			0.8,
			1.0],
			"metallicFactor":0.0,
			"roughnessFactor":0.5
		},
		"emissiveFactor":[0.0,
		0.0,
		0.0],
		"alphaMode":"OPAQUE",
		"doubleSided":false,
		"name":"Mat3d66-1469207-8-4130"
	},
	{
		"pbrMetallicRoughness":{
			"baseColorTexture":{
				"index":0
			},
			"baseColorFactor":[0.5879999995231628,
			0.5879999995231628,
			0.5879999995231628,
			1.0],
			"metallicFactor":1.0,
			"roughnessFactor":1.0
		},
		"emissiveFactor":[0.0,
		0.0,
		0.0],
		"alphaMode":"OPAQUE",
		"doubleSided":false,
		"name":"05 - Default"
	}]
}